<?xml version="1.0" encoding="iso-8859-1"?>
<!-- Generator: Adobe Illustrator 17.1.0, SVG Export Plug-In . SVG Version: 6.00 Build 0)  -->
<!DOCTYPE svg PUBLIC "-//W3C//DTD SVG 1.1//EN" "http://www.w3.org/Graphics/SVG/1.1/DTD/svg11.dtd">
<svg version="1.1" id="Capa_1" xmlns="http://www.w3.org/2000/svg" xmlns:xlink="http://www.w3.org/1999/xlink" x="0px" y="0px"
	 viewBox="0 0 475.434 475.434" style="enable-background:new 0 0 475.434 475.434;" xml:space="preserve" fill="#f4f4f4">
<path d="M375.799,153.376H99.247c-22.438,0-40.693,18.255-40.693,40.693v60.855v0.005v10.206c0,8.513,5.095,16.083,12.98,19.287
	l75.114,30.528c2.52,1.024,5.152,1.543,7.823,1.543c8.59,0,16.19-5.158,19.363-13.143l36.865-92.79
	c4.395-11.06,14.924-18.206,26.825-18.206c11.901,0,22.43,7.146,26.824,18.207l18.454,46.447c0.007,0.016,0.013,0.032,0.019,0.049
	l13.7,34.482c0.008,0.021,0.016,0.042,0.025,0.063l4.667,11.747c3.173,7.984,10.773,13.144,19.362,13.144
	c2.671,0,5.304-0.519,7.825-1.543l75.112-30.528c7.886-3.204,12.981-10.775,12.981-19.287v-71.065
	C416.493,171.631,398.238,153.376,375.799,153.376z M401.493,265.135c0,2.379-1.424,4.495-3.628,5.391l-75.111,30.528
	c-0.719,0.291-1.452,0.439-2.179,0.439c-2.442,0-4.52-1.411-5.422-3.683l-2.877-7.241l63.727-63.728
	c2.929-2.93,2.929-7.678,0-10.607c-2.929-2.928-7.678-2.928-10.606,0l-59.152,59.153l-7.69-19.357l51.221-51.221
	c2.929-2.93,2.929-7.678,0-10.607c-2.929-2.928-7.678-2.928-10.606,0l-46.646,46.646l-14.234-35.826
	c-6.678-16.808-22.679-27.668-40.765-27.668c-18.085,0-34.086,10.86-40.765,27.667l-36.865,92.79
	c-0.903,2.271-2.98,3.682-5.423,3.682c-0.727,0-1.46-0.148-2.177-0.439l-51.241-20.826l62.034-62.034
	c2.929-2.93,2.929-7.678,0-10.607c-2.929-2.928-7.678-2.928-10.606,0l-66.511,66.511l-8.788-3.572
	c-2.204-0.896-3.627-3.012-3.627-5.391v-7.101l60.317-60.318c2.929-2.93,2.929-7.678,0-10.607c-2.929-2.928-7.678-2.928-10.606,0
	L73.553,236.82v-42.75c0-14.167,11.526-25.693,25.693-25.693h276.553c14.167,0,25.693,11.526,25.693,25.693V265.135z
	 M467.934,179.773h-26.562c-5.374-24.67-24.343-44.321-48.643-50.659l-15.034-30.069c-8.487-16.974-25.549-27.519-44.527-27.519
	H141.879c-18.978,0-36.041,10.545-44.528,27.519l-15.034,30.069c-24.3,6.338-43.269,25.988-48.643,50.659H7.5
	c-4.142,0-7.5,3.357-7.5,7.5v81.184c0,4.143,3.358,7.5,7.5,7.5h25.869c3.429,14.719,13.752,27.07,28.215,32.947l21.466,8.725
	l24.981,56.584c9.813,22.227,34.043,34.081,57.617,28.19c0.319-0.08,0.632-0.181,0.937-0.301
	c0.453-0.18,45.598-17.899,70.938-17.899c25.308,0,70.485,17.721,70.939,17.899c0.305,0.12,0.618,0.221,0.936,0.301
	c4.059,1.015,8.136,1.503,12.157,1.503c19.332,0,37.336-11.293,45.459-29.693l24.982-56.584l21.466-8.725
	c14.463-5.878,24.786-18.229,28.215-32.947h26.256c4.142,0,7.5-3.357,7.5-7.5v-81.184
	C475.434,183.131,472.076,179.773,467.934,179.773z M110.767,105.755c5.93-11.86,17.852-19.228,31.112-19.228h191.288
	c13.26,0,25.181,7.367,31.111,19.228l10.597,21.193H100.171L110.767,105.755z M15,194.773h17.126v66.184H15V194.773z
	 M353.292,368.154c-6.794,15.391-23.479,23.671-39.81,19.805c-5.399-2.104-48.999-18.756-75.959-18.756s-70.56,16.652-75.959,18.756
	c-16.332,3.863-33.017-4.416-39.811-19.805l-18.721-42.404l33.663,13.682c5.696,2.314,11.677,3.488,17.777,3.488
	c19.486-0.002,36.727-11.705,43.921-29.813l5.691-14.325l-1.116,26.495c-0.004,0.104-0.007,0.21-0.007,0.315
	c0,9.514,4.672,18.359,12.498,23.663c7.722,5.232,15.146,7.886,22.064,7.886c6.569,0,13.628-2.313,20.982-6.877
	c3.52-2.185,4.602-6.808,2.418-10.327c-2.184-3.521-6.808-4.603-10.327-2.419c-4.874,3.024-9.394,4.623-13.073,4.623
	c-3.81,0-8.529-1.834-13.649-5.304c-3.664-2.482-5.867-6.625-5.912-11.104l2.916-69.22l14.381-36.196
	c0.505-1.271,1.51-1.537,2.265-1.537c0.754,0,1.76,0.267,2.264,1.537l14.383,36.203l2.921,66.389c0.177,4.025,3.497,7.17,7.487,7.17
	c0.111,0,0.223-0.002,0.335-0.007c4.138-0.183,7.345-3.685,7.163-7.823l-1.022-23.231l5.597,14.088
	c7.195,18.11,24.436,29.813,43.922,29.813c6.101,0,12.082-1.174,17.776-3.488l33.663-13.682L353.292,368.154z M427.92,265.135
	c0,13.184-7.892,24.909-20.105,29.873l-75.111,30.528c-3.893,1.582-7.973,2.385-12.128,2.385c-13.302,0-25.07-7.989-29.982-20.353
	l-36.865-92.789c-2.654-6.681-9.015-10.998-16.204-10.998c-7.189,0-13.55,4.317-16.205,10.998l-36.866,92.789
	c-4.911,12.362-16.68,20.351-29.982,20.353c-4.154,0-8.234-0.802-12.128-2.385l-75.112-30.528
	c-12.213-4.964-20.105-16.689-20.105-29.873v-71.065c0-28.739,23.381-52.121,52.121-52.121h276.553
	c28.739,0,52.121,23.382,52.121,52.121V265.135z M460.434,260.957H442.92v-66.184h17.514V260.957z"/>
<g>
</g>
<g>
</g>
<g>
</g>
<g>
</g>
<g>
</g>
<g>
</g>
<g>
</g>
<g>
</g>
<g>
</g>
<g>
</g>
<g>
</g>
<g>
</g>
<g>
</g>
<g>
</g>
<g>
</g>
</svg>
